<svg width="200" height="200" viewBox="0 0 200 200" fill="none" xmlns="http://www.w3.org/2000/svg">
<rect width="200" height="200" fill="white"/>
<path d="M150 100C150 127.614 127.614 150 100 150C72.3858 150 50 127.614 50 100C50 72.3858 72.3858 50 100 50C127.614 50 150 72.3858 150 100ZM60 100C60 122.091 77.9086 140 100 140C122.091 140 140 122.091 140 100C140 77.9086 122.091 60 100 60C77.9086 60 60 77.9086 60 100Z" fill="#FFA7A7"/>
<path d="M100 136C100.04 116.134 116.134 100.04 136 100C116.134 99.9602 100.04 83.8657 100 64C99.9602 83.8657 83.8657 99.9602 64 100C83.8657 100.04 99.9602 116.134 100 136Z" fill="#FFA7A7"/>
</svg>
