<svg width="100" height="100" viewBox="0 0 100 100" fill="none" xmlns="http://www.w3.org/2000/svg">
<path d="M100 50C100 77.6142 77.6142 100 50 100C22.3858 100 0 77.6142 0 50C0 22.3858 22.3858 0 50 0C77.6142 0 100 22.3858 100 50ZM10 50C10 72.0914 27.9086 90 50 90C72.0914 90 90 72.0914 90 50C90 27.9086 72.0914 10 50 10C27.9086 10 10 27.9086 10 50Z" fill="white"/>
<path d="M50 86C50.0398 66.1343 66.1343 50.0398 86 50C66.1343 49.9602 50.0398 33.8657 50 14C49.9602 33.8657 33.8657 49.9602 14 50C33.8657 50.0398 49.9602 66.1343 50 86Z" fill="white"/>
</svg>
