<svg width="600" height="100" viewBox="0 0 600 100" fill="none" xmlns="http://www.w3.org/2000/svg">
<path d="M200 50C200 63.2608 194.732 75.9785 185.355 85.3553C175.979 94.7322 163.261 100 150 100C136.739 100 124.021 94.7322 114.645 85.3553C105.268 75.9785 100 63.2608 100 50V0H125V50C125 56.6304 127.634 62.9893 132.322 67.6777C137.011 72.3661 143.37 75 150 75C156.63 75 162.989 72.3661 167.678 67.6777C172.366 62.9893 175 56.6304 175 50H200Z" fill="#FFA7A7"/>
<path d="M200 50C200 62.1304 204.41 73.8472 212.408 82.9673C220.406 92.0874 231.447 97.9889 243.474 99.5722C255.5 101.156 267.692 98.3128 277.779 91.5735C287.865 84.8342 295.157 74.658 298.296 62.941C301.436 51.2239 300.209 38.765 294.844 27.8856C289.479 17.0061 280.341 8.44814 269.134 3.80603C257.927 -0.836082 245.415 -1.2457 233.928 2.65349C222.441 6.55268 212.764 14.4947 206.699 25L224.019 35C227.658 28.6968 233.465 23.9316 240.357 21.5921C247.249 19.2526 254.756 19.4983 261.481 22.2836C268.205 25.0689 273.687 30.2037 276.906 36.7313C280.125 43.259 280.862 50.7343 278.978 57.7646C277.094 64.7948 272.719 70.9005 266.667 74.9441C260.615 78.9877 253.3 80.6934 246.084 79.7433C238.868 78.7933 232.244 75.2524 227.445 69.7804C222.646 64.3083 220 57.2782 220 50H200Z" fill="#FFA7A7"/>
<path d="M300 50C300 36.7392 305.268 24.0215 314.645 14.6447C324.021 5.26784 336.739 1.42268e-06 350 0C363.261 -1.42268e-06 375.979 5.26784 385.355 14.6447C394.732 24.0215 400 36.7392 400 50L385 50C385 40.7174 381.313 31.815 374.749 25.2513C368.185 18.6875 359.283 15 350 15C340.717 15 331.815 18.6875 325.251 25.2513C318.687 31.815 315 40.7174 315 50V100H300V50Z" fill="#FFA7A7"/>
<path d="M500 50C500 77.6142 477.614 100 450 100C422.386 100 400 77.6142 400 50C400 22.3858 422.386 0 450 0C477.614 0 500 22.3858 500 50ZM410 50C410 72.0914 427.909 90 450 90C472.091 90 490 72.0914 490 50C490 27.9086 472.091 10 450 10C427.909 10 410 27.9086 410 50Z" fill="#FFA7A7"/>
<path d="M50 100C50.0553 72.4087 72.4087 50.0553 100 50C72.4087 49.9447 50.0553 27.5913 50 0C49.9447 27.5913 27.5913 49.9447 0 50C27.5913 50.0553 49.9447 72.4087 50 100Z" fill="#FFA7A7"/>
</svg>
