<svg width="400" height="100" viewBox="0 0 400 100" fill="none" xmlns="http://www.w3.org/2000/svg">
<path d="M100 50C100 63.2608 94.7322 75.9785 85.3553 85.3553C75.9785 94.7322 63.2608 100 50 100C36.7392 100 24.0215 94.7322 14.6447 85.3553C5.26785 75.9785 2.00233e-06 63.2608 0 50V0H25V50C25 56.6304 27.6339 62.9893 32.3223 67.6777C37.0107 72.3661 43.3696 75 50 75C56.6304 75 62.9893 72.3661 67.6777 67.6777C72.3661 62.9893 75 56.6304 75 50H100Z" fill="white"/>
<path d="M100 50C100 62.1304 104.41 73.8472 112.408 82.9673C120.406 92.0874 131.447 97.9889 143.474 99.5722C155.5 101.156 167.692 98.3128 177.779 91.5735C187.865 84.8342 195.157 74.658 198.296 62.941C201.436 51.2239 200.209 38.765 194.844 27.8856C189.479 17.0061 180.341 8.44814 169.134 3.80603C157.927 -0.836082 145.415 -1.2457 133.928 2.65349C122.441 6.55268 112.764 14.4947 106.699 25L124.019 35C127.658 28.6968 133.465 23.9316 140.357 21.5921C147.249 19.2526 154.756 19.4983 161.481 22.2836C168.205 25.0689 173.687 30.2037 176.906 36.7313C180.125 43.259 180.862 50.7343 178.978 57.7646C177.094 64.7948 172.719 70.9005 166.667 74.9441C160.615 78.9877 153.3 80.6934 146.084 79.7433C138.868 78.7933 132.244 75.2524 127.445 69.7804C122.646 64.3083 120 57.2782 120 50L100 50Z" fill="white"/>
<path d="M200 50C200 36.7392 205.268 24.0215 214.645 14.6447C224.021 5.26784 236.739 1.42268e-06 250 0C263.261 -1.42268e-06 275.979 5.26784 285.355 14.6447C294.732 24.0215 300 36.7392 300 50L285 50C285 40.7174 281.313 31.815 274.749 25.2513C268.185 18.6875 259.283 15 250 15C240.717 15 231.815 18.6875 225.251 25.2513C218.687 31.815 215 40.7174 215 50V100H200V50Z" fill="white"/>
<path d="M400 50C400 77.6142 377.614 100 350 100C322.386 100 300 77.6142 300 50C300 22.3858 322.386 0 350 0C377.614 0 400 22.3858 400 50ZM310 50C310 72.0914 327.909 90 350 90C372.091 90 390 72.0914 390 50C390 27.9086 372.091 10 350 10C327.909 10 310 27.9086 310 50Z" fill="white"/>
</svg>
